# xmcd CD database file
#
# Track frame offsets:
#	150
#	23417
#	43672
#
# Disc length: 805 seconds
#
# Revision: 0
# Processed by: cddbd v1.5.1PL2 Copyright (c) Steve Scherf et al.
# Submitted via: CDex 1.51
#
DISCID=17032303
DTITLE=SOON - 白夜 〜everyday I call you〜
DYEAR=1999
DGENRE=Pop
TTITLE0=白夜 〜everyday I call you〜
TTITLE1=CARDINAL
TTITLE2=Don't Dream It's Over
EXTD=YEAR: 1999
EXTT0=
EXTT1=
EXTT2=
PLAYORDER=
